<svg xmlns="http://www.w3.org/2000/svg" xmlns:xlink="http://www.w3.org/1999/xlink" width="452" height="42" version="1.1" viewBox="0 0 452 42"><defs><polygon id="path-1" points="0 41.716 546.764 41.716 546.764 0 0 0"/></defs><g id="Symbols" fill="none" fill-rule="evenodd" stroke="none" stroke-width="1"><g id="OpenVino_logo" transform="translate(-8.000000, -4.000000)"><g id="Group-26" transform="translate(8.000000, 4.000000)"><path id="Fill-1" fill="#FFF" d="M16.7051,6.3847 C10.8011,6.3847 7.0081,10.8967 7.0081,16.8977 C7.0081,22.8497 10.8011,27.4097 16.7051,27.4097 C22.6101,27.4097 26.4501,22.8497 26.4501,16.8977 C26.4501,10.8967 22.6101,6.3847 16.7051,6.3847 M16.7051,0.3357 C26.4021,0.3357 33.4581,7.2487 33.4581,16.8977 C33.4581,26.5467 26.4021,33.4587 16.7051,33.4587 C7.0571,33.4587 0.0001,26.5467 0.0001,16.8977 C0.0001,7.2487 7.0571,0.3357 16.7051,0.3357"/><path id="Fill-3" fill="#FFF" d="M49.7046,14.5454 C47.7366,14.5454 45.4806,15.6974 44.4726,17.1854 L44.4726,25.3944 C45.4806,26.8344 47.7366,28.0344 49.7046,28.0344 C53.2086,28.0344 55.5616,25.2984 55.5616,21.2654 C55.5616,17.2814 53.2086,14.5454 49.7046,14.5454 Z M38.3756,41.7154 L38.3756,9.6964 L44.4726,9.6964 L44.4726,12.6254 C46.2486,10.3684 48.7926,9.1204 51.6246,9.1204 C57.5776,9.1204 61.8976,13.5374 61.8976,21.2654 C61.8976,28.9944 57.5776,33.4594 51.6246,33.4594 C48.8886,33.4594 46.3446,32.3064 44.4726,29.9064 L44.4726,41.7154 L38.3756,41.7154 Z"/><path id="Fill-5" fill="#FFF" d="M71.3711,19.1054 L82.7961,19.1054 C82.6521,16.8974 81.1161,13.9694 77.0831,13.9694 C73.2911,13.9694 71.6591,16.8014 71.3711,19.1054 M77.0831,9.1204 C83.9961,9.1204 88.7011,14.3054 88.7011,21.8894 L88.7011,23.2334 L71.4671,23.2334 C71.8511,26.1624 74.2031,28.6104 78.1401,28.6104 C80.3001,28.6104 82.8441,27.7464 84.3321,26.3064 L87.0201,30.2424 C84.6681,32.4024 81.0681,33.4594 77.4681,33.4594 C70.4111,33.4594 65.0821,28.7064 65.0821,21.2654 C65.0821,14.5454 70.0271,9.1204 77.0831,9.1204"/><path id="Fill-7" fill="#FFF" d="M108.6582,18.8657 C108.6582,15.6497 106.9782,14.5457 104.3862,14.5457 C101.9852,14.5457 100.1132,15.8887 99.1052,17.2817 L99.1052,32.8827 L93.0092,32.8827 L93.0092,9.6967 L99.1052,9.6967 L99.1052,12.7207 C100.5932,10.9447 103.4252,9.1207 107.2182,9.1207 C112.3062,9.1207 114.7542,12.0007 114.7542,16.5127 L114.7542,32.8827 L108.6582,32.8827 L108.6582,18.8657 Z"/><polygon id="Fill-9" fill="#FFF" points="115.342 .864 123.119 .864 132 25.49 140.832 .864 148.609 .864 136.272 32.883 127.727 32.883"/><mask id="mask-2" fill="#fff"><use xlink:href="#path-1"/></mask><polygon id="Fill-11" fill="#FFF" points="151.722 32.883 158.538 32.883 158.538 .864 151.722 .864" mask="url(#mask-2)"/><polygon id="Fill-13" fill="#FFF" points="171.968 11.377 171.968 32.883 165.152 32.883 165.152 .864 172.16 .864 186.993 21.602 186.993 .864 193.81 .864 193.81 32.883 187.233 32.883" mask="url(#mask-2)"/><path id="Fill-14" fill="#FFF" d="M215.5615,6.3847 C209.6575,6.3847 205.8645,10.8967 205.8645,16.8977 C205.8645,22.8497 209.6575,27.4097 215.5615,27.4097 C221.4665,27.4097 225.3065,22.8497 225.3065,16.8977 C225.3065,10.8967 221.4665,6.3847 215.5615,6.3847 M215.5615,0.3357 C225.2585,0.3357 232.3145,7.2487 232.3145,16.8977 C232.3145,26.5467 225.2585,33.4587 215.5615,33.4587 C205.9135,33.4587 198.8565,26.5467 198.8565,16.8977 C198.8565,7.2487 205.9135,0.3357 215.5615,0.3357" mask="url(#mask-2)"/><path id="Fill-15" fill="#FFF" d="M252.0371,2.688 L248.4371,11.425 L248.0531,11.425 L244.4531,2.688 L244.4531,11.425 L243.1081,11.425 L243.1081,0.864 L245.1721,0.864 L248.2451,8.545 L251.3171,0.864 L253.3811,0.864 L253.3811,11.425 L252.0371,11.425 L252.0371,2.688 Z M238.4041,11.425 L237.0601,11.425 L237.0601,2.112 L234.0831,2.112 L234.0831,0.864 L241.3801,0.864 L241.3801,2.112 L238.4041,2.112 L238.4041,11.425 Z" mask="url(#mask-2)"/><g id="Group" fill="#FFF" mask="url(#mask-2)"><g transform="translate(263.000000, 0.000000)"><polygon id="Fill-19" points="10.596 4.417 .467 4.417 .467 .865 24.757 .865 24.757 4.417 14.58 4.417 14.58 32.883 10.596 32.883"/><path id="Fill-20" d="M43.7314,3.8882 C36.5304,3.8882 31.9704,9.4092 31.9704,16.8972 C31.9704,24.3382 36.5304,29.9072 43.7314,29.9072 C50.8844,29.9072 55.4924,24.3382 55.4924,16.8972 C55.4924,9.4092 50.8844,3.8882 43.7314,3.8882 M43.7314,0.3362 C53.1884,0.3362 59.6214,7.4402 59.6214,16.8972 C59.6214,26.3542 53.1884,33.4592 43.7314,33.4592 C34.2274,33.4592 27.8424,26.3542 27.8424,16.8972 C27.8424,7.4402 34.2274,0.3362 43.7314,0.3362"/><path id="Fill-21" d="M80.3652,3.8882 C73.1642,3.8882 68.6042,9.4092 68.6042,16.8972 C68.6042,24.3382 73.1642,29.9072 80.3652,29.9072 C87.5182,29.9072 92.1262,24.3382 92.1262,16.8972 C92.1262,9.4092 87.5182,3.8882 80.3652,3.8882 M80.3652,0.3362 C89.8222,0.3362 96.2542,7.4402 96.2542,16.8972 C96.2542,26.3542 89.8222,33.4592 80.3652,33.4592 C70.8612,33.4592 64.4762,26.3542 64.4762,16.8972 C64.4762,7.4402 70.8612,0.3362 80.3652,0.3362"/><polygon id="Fill-22" points="102.655 .864 106.639 .864 106.639 29.33 121.521 29.33 121.521 32.883 102.655 32.883"/><polygon id="Fill-23" points="133.841 18.481 130.624 22.129 130.624 32.882 126.64 32.882 126.64 .864 130.624 .864 130.624 17.425 144.785 .864 149.778 .864 136.433 16.081 150.93 32.882 145.986 32.882"/><polygon id="Fill-24" points="155.58 32.883 159.564 32.883 159.564 .864 155.58 .864"/><polygon id="Fill-25" points="174.603 4.417 164.474 4.417 164.474 .865 188.764 .865 188.764 4.417 178.587 4.417 178.587 32.883 174.603 32.883"/></g></g></g></g></g></svg>