<svg xmlns="http://www.w3.org/2000/svg" xmlns:ev="http://www.w3.org/2001/xml-events" xmlns:xlink="http://www.w3.org/1999/xlink" width="972.778" height="343.72" class="st13" color-interpolation-filters="sRGB" viewBox="0 0 729.585 257.79" xml:space="preserve"><style type="text/css">.st1{fill:#007dc4;stroke:#c7c8c8;stroke-width:.25}.st2{fill:#feffff;font-family:Intel Clear;font-size:1.00001em}.st3{font-size:1em}.st4{fill:#174a7c;stroke:#41719c;stroke-width:1}.st5{fill:#fff;font-family:Intel Clear;font-size:1.00001em}.st6{fill:none;stroke:none;stroke-width:.25}.st7,.st8{fill:#fff;font-family:Intel Clear;font-size:1.99999em}.st8{fill:#feffff}.st9{marker-end:url(#mrkr4-58);stroke-linecap:round;stroke-linejoin:round;stroke-width:1}.st10,.st11,.st9{stroke:#174a7c}.st10{fill:#174a7c;fill-opacity:1;stroke-opacity:1;stroke-width:.28409090909091}.st11{fill:none;stroke-dasharray:.01,3;stroke-width:1}.st12{fill:#174a7c;font-family:Intel Clear;font-size:1.00001em}.st13{fill:none;fill-rule:evenodd;font-size:12px;overflow:visible;stroke-linecap:square;stroke-miterlimit:3}</style><defs id="Markers"><g id="lend4"><path d="M 2 1 L 0 0 L 2 -1 L 2 1" style="stroke:none"/></g><marker id="mrkr4-58" class="st10" markerUnits="strokeWidth" orient="auto" overflow="visible" refX="-7.04"><use transform="scale(-3.52,-3.52)" xlink:href="#lend4"/></marker></defs><g><title>Page-1</title><g id="shape1-1" transform="translate(239.315,-170.329)"><title>Rounded Rectangle</title><desc>Landmarks detector</desc><path d="M8.11 257.79 L73 257.79 A8.11121 8.11121 -180 0 0 81.11 249.68 L81.11 221.96 A8.11121 8.11121 -180 0 0 73 213.85 L8.11 213.85 A8.11121 8.11121 -180 0 0 0 221.96 L0 249.68 A8.11121 8.11121 -180 0 0 8.11 257.79 Z" class="st1"/><text x="10.51" y="232.22" class="st2">Landmarks<tspan x="17.59" class="st3" dy="1.2em">detector</tspan></text></g><g id="shape4-5" transform="translate(371.074,-170.329)"><title>Rounded Rectangle.4</title><desc>Generate BG mask</desc><path d="M8.11 257.79 L73 257.79 A8.11121 8.11121 -180 0 0 81.11 249.68 L81.11 221.96 A8.11121 8.11121 -180 0 0 73 213.85 L8.11 213.85 A8.11121 8.11121 -180 0 0 0 221.96 L0 249.68 A8.11121 8.11121 -180 0 0 8.11 257.79 Z" class="st1"/><text x="15.79" y="232.22" class="st2">Generate<tspan x="16.93" class="st3" dy="1.2em">BG mask</tspan></text></g><g id="shape5-9" transform="translate(0.999867,-85.2894)"><title>Rounded Rectangle.5</title><desc>Input</desc><path d="M8.11 257.79 L73 257.79 A8.11121 8.11121 -180 0 0 81.11 249.68 L81.11 221.96 A8.11121 8.11121 -180 0 0 73 213.85 L8.11 213.85 A8.11121 8.11121 -180 0 0 0 221.96 L0 249.68 A8.11121 8.11121 -180 0 0 8.11 257.79 Z" class="st4"/><text x="26.22" y="239.42" class="st5">Input</text></g><g id="shape7-12" transform="translate(120.157,-85.2894)"><title>Rounded Rectangle.7</title><desc>Unsharp mask</desc><path d="M8.11 257.79 L73 257.79 A8.11121 8.11121 -180 0 0 81.11 249.68 L81.11 221.96 A8.11121 8.11121 -180 0 0 73 213.85 L8.11 213.85 A8.11121 8.11121 -180 0 0 0 221.96 L0 249.68 A8.11121 8.11121 -180 0 0 8.11 257.79 Z" class="st1"/><text x="17.49" y="232.22" class="st2">Unsharp<tspan x="26.2" class="st3" dy="1.2em">mask</tspan></text></g><g id="shape8-16" transform="translate(120.157,-0.25)"><title>Rounded Rectangle.8</title><desc>Bilateral filter</desc><path d="M8.11 257.79 L73 257.79 A8.11121 8.11121 -180 0 0 81.11 249.68 L81.11 221.96 A8.11121 8.11121 -180 0 0 73 213.85 L8.11 213.85 A8.11121 8.11121 -180 0 0 0 221.96 L0 249.68 A8.11121 8.11121 -180 0 0 8.11 257.79 Z" class="st1"/><text x="18.25" y="232.22" class="st2">Bilateral<tspan x="27.86" class="st3" dy="1.2em">filter</tspan></text></g><g id="shape9-20" transform="translate(120.157,-170.329)"><title>Rounded Rectangle.9</title><desc>Face detector</desc><path d="M8.11 257.79 L73 257.79 A8.11121 8.11121 -180 0 0 81.11 249.68 L81.11 221.96 A8.11121 8.11121 -180 0 0 73 213.85 L8.11 213.85 A8.11121 8.11121 -180 0 0 0 221.96 L0 249.68 A8.11121 8.11121 -180 0 0 8.11 257.79 Z" class="st1"/><text x="28.03" y="232.22" class="st2">Face<tspan x="17.59" class="st3" dy="1.2em">detector</tspan></text></g><g id="shape10-24" transform="translate(371.074,-85.2894)"><title>Rounded Rectangle.10</title><desc>Generate sharp mask</desc><path d="M8.11 257.79 L73 257.79 A8.11121 8.11121 -180 0 0 81.11 249.68 L81.11 221.96 A8.11121 8.11121 -180 0 0 73 213.85 L8.11 213.85 A8.11121 8.11121 -180 0 0 0 221.96 L0 249.68 A8.11121 8.11121 -180 0 0 8.11 257.79 Z" class="st1"/><text x="15.79" y="232.22" class="st2">Generate<tspan x="9.44" class="st3" dy="1.2em">sharp mask</tspan></text></g><g id="shape11-28" transform="translate(647.472,-170.329)"><title>Rounded Rectangle.11</title><desc>Output</desc><path d="M8.11 257.79 L73 257.79 A8.11121 8.11121 -180 0 0 81.11 249.68 L81.11 221.96 A8.11121 8.11121 -180 0 0 73 213.85 L8.11 213.85 A8.11121 8.11121 -180 0 0 0 221.96 L0 249.68 A8.11121 8.11121 -180 0 0 8.11 257.79 Z" class="st4"/><text x="21.25" y="239.42" class="st5">Output</text></g><g id="shape13-31" transform="translate(371.074,-0.25)"><title>Rounded Rectangle.13</title><desc>Generate blur mask</desc><path d="M8.11 257.79 L73 257.79 A8.11121 8.11121 -180 0 0 81.11 249.68 L81.11 221.96 A8.11121 8.11121 -180 0 0 73 213.85 L8.11 213.85 A8.11121 8.11121 -180 0 0 0 221.96 L0 249.68 A8.11121 8.11121 -180 0 0 8.11 257.79 Z" class="st1"/><text x="15.79" y="232.22" class="st2">Generate<tspan x="13.76" class="st3" dy="1.2em">blur mask</tspan></text></g><g id="shape14-35" transform="translate(490.149,-170.329)"><title>Circle</title><path d="M0 235.82 A21.9685 21.9685 0 0 1 43.94 235.82 A21.9685 21.9685 0 1 1 0 235.82 Z" class="st1"/></g><g id="shape15-37" transform="translate(501.133,-178.124)"><title>Circle.15</title><desc>*</desc><rect width="21.968" height="21.968" x="0" y="235.822" class="st6"/><text x="6.24" y="254.01" class="st7">*</text></g><g id="shape16-40" transform="translate(490.149,-0.25)"><title>Circle.16</title><path d="M0 235.82 A21.9685 21.9685 0 0 1 43.94 235.82 A21.9685 21.9685 0 1 1 0 235.82 Z" class="st1"/></g><g id="shape17-42" transform="translate(501.133,-8.04528)"><title>Circle.17</title><desc>*</desc><rect width="21.968" height="21.968" x="0" y="235.822" class="st6"/><text x="6.24" y="254.01" class="st7">*</text></g><g id="shape18-45" transform="translate(568.81,-170.329)"><title>Circle.18</title><desc>+</desc><path d="M0 235.82 A21.9685 21.9685 0 0 1 43.94 235.82 A21.9685 21.9685 0 1 1 0 235.82 Z" class="st1"/><text x="14.84" y="243.02" class="st8">+</text></g><g id="shape20-48" transform="translate(491.566,-85.2894)"><title>Circle.20</title><path d="M0 235.82 A21.9685 21.9685 0 0 1 43.94 235.82 A21.9685 21.9685 0 1 1 0 235.82 Z" class="st1"/></g><g id="shape21-50" transform="translate(502.551,-93.0847)"><title>Circle.21</title><desc>*</desc><rect width="21.968" height="21.968" x="0" y="235.822" class="st6"/><text x="6.24" y="254.01" class="st7">*</text></g><g id="shape26-53" transform="translate(82.1133,-100.171)"><title>Dynamic connector</title><path d="M0 250.7 L31 250.7" class="st9"/></g><g id="shape27-59" transform="translate(82.1133,-107.258)"><title>Dynamic connector.27</title><path d="M0 257.79 L12.67 257.79 L12.67 172.75 L31 172.75" class="st9"/></g><g id="shape28-64" transform="translate(82.1133,-107.258)"><title>Dynamic connector.28</title><path d="M0 257.79 L12.67 257.79 L12.67 342.83 L31 342.83" class="st9"/></g><g id="shape29-69" transform="translate(82.1133,-107.258)"><title>Dynamic connector.29</title><path d="M0 257.79 L12.67 257.79 L12.67 116.06 L430 116.06 L430 143.74" class="st9"/></g><g id="shape30-74" transform="translate(201.271,-185.211)"><title>Dynamic connector.30</title><path d="M0 250.7 L31 250.7" class="st9"/></g><g id="shape31-79" transform="translate(320.428,-185.211)"><title>Dynamic connector.31</title><path d="M0 250.7 L43.61 250.7" class="st9"/></g><g id="shape32-84" transform="translate(452.188,-185.211)"><title>Dynamic connector.32</title><path d="M0 250.7 L30.92 250.7" class="st9"/></g><g id="shape33-89" transform="translate(534.086,-199.384)"><title>Dynamic connector.33</title><path d="M0 264.88 L27.68 264.88" class="st9"/></g><g id="shape34-94" transform="translate(612.747,-185.211)"><title>Dynamic connector.34</title><path d="M0 250.7 L27.68 250.7" class="st9"/></g><g id="shape35-99" transform="translate(534.086,-22.2185)"><title>Dynamic connector.35</title><path d="M0 257.79 L56.69 257.79 L56.69 116.72" class="st9"/></g><g id="shape36-104" transform="translate(535.503,-107.258)"><title>Dynamic connector.36</title><path d="M0 257.79 L55.28 257.79 L55.28 201.76" class="st9"/></g><g id="shape37-109" transform="translate(160.714,-122.14)"><title>Dynamic connector.37</title><path d="M0 250.7 L0 238.03 L176.99 238.03 A2.3622 2.3622 0 0 1 181.71 238.03 L352.82 238.03 L352.82 243.66" class="st9"/></g><g id="shape38-114" transform="translate(320.428,-192.297)"><title>Dynamic connector.38</title><path d="M0 257.79 L19.64 257.79 L19.64 342.83 L43.61 342.83" class="st9"/></g><g id="shape39-119" transform="translate(320.428,-192.297)"><title>Dynamic connector.39</title><path d="M0 257.79 L19.64 257.79 L19.64 427.87 L43.61 427.87" class="st9"/></g><g id="shape40-124" transform="translate(160.714,-37.1004)"><title>Dynamic connector.40</title><path d="M0 250.7 L0 238.03 L176.99 238.03 A2.3622 2.3622 0 0 1 181.71 238.03 L351.4 238.03 L351.4 243.66" class="st9"/></g><g id="shape41-129" transform="translate(232.493,-156.864)"><title>Rectangle</title><desc>For each face</desc><path d="M0 257.79 L94.76 257.79 L94.76 177 L0 177 L0 257.79 Z" class="st11"/><text x="11.36" y="191.8" class="st12">For each face</text></g></g></svg>